<?xml version="1.0" standalone="no"?>
<!DOCTYPE svg PUBLIC "-//W3C//DTD SVG 1.1//EN" "http://www.w3.org/Graphics/SVG/1.1/DTD/svg11.dtd">
<svg width="800" height="600" version="1.1" xmlns="http://www.w3.org/2000/svg">
<rect width="800" height="600" x="0" y="0" style="fill:rgb(238,238,238);stroke:none"/>
<rect width="800" height="600" x="0" y="0" style="fill:rgb(255,255,255);stroke:none"/>
<text x="2" y="566" fill="rgb(0,0,0)" font-family="Arial" font-size="12">0</text>
<text x="2" y="481" fill="rgb(0,0,0)" font-family="Arial" font-size="12">50000</text>
<text x="2" y="395" fill="rgb(0,0,0)" font-family="Arial" font-size="12">100000</text>
<text x="2" y="309" fill="rgb(0,0,0)" font-family="Arial" font-size="12">150000</text>
<text x="2" y="224" fill="rgb(0,0,0)" font-family="Arial" font-size="12">200000</text>
<text x="2" y="138" fill="rgb(0,0,0)" font-family="Arial" font-size="12">250000</text>
<text x="2" y="52" fill="rgb(0,0,0)" font-family="Arial" font-size="12">300000</text>
<text x="282" y="30" fill="rgb(0,0,0)" font-family="Arial" font-size="12">Quality score distribution over all sequences</text>
<line x1="53" y1="560" x2="790" y2="560" stroke="rgb(0,0,0)" stroke-width="1"/>
<line x1="53" y1="560" x2="53" y2="40" stroke="rgb(0,0,0)" stroke-width="1"/>
<text x="281" y="595" fill="rgb(0,0,0)" font-family="Arial" font-size="12">Mean Sequence Quality (Phred Score)</text>
<text x="58" y="575" fill="rgb(0,0,0)" font-family="Arial" font-size="12">3</text>
<rect width="19" height="520" x="72" y="40" style="fill:rgb(230,230,230);stroke:none"/>
<text x="77" y="575" fill="rgb(0,0,0)" font-family="Arial" font-size="12">4</text>
<text x="96" y="575" fill="rgb(0,0,0)" font-family="Arial" font-size="12">5</text>
<rect width="19" height="520" x="110" y="40" style="fill:rgb(230,230,230);stroke:none"/>
<text x="115" y="575" fill="rgb(0,0,0)" font-family="Arial" font-size="12">6</text>
<text x="134" y="575" fill="rgb(0,0,0)" font-family="Arial" font-size="12">7</text>
<rect width="19" height="520" x="148" y="40" style="fill:rgb(230,230,230);stroke:none"/>
<text x="153" y="575" fill="rgb(0,0,0)" font-family="Arial" font-size="12">8</text>
<text x="172" y="575" fill="rgb(0,0,0)" font-family="Arial" font-size="12">9</text>
<rect width="19" height="520" x="186" y="40" style="fill:rgb(230,230,230);stroke:none"/>
<text x="187" y="575" fill="rgb(0,0,0)" font-family="Arial" font-size="12">10</text>
<rect width="19" height="520" x="224" y="40" style="fill:rgb(230,230,230);stroke:none"/>
<text x="225" y="575" fill="rgb(0,0,0)" font-family="Arial" font-size="12">12</text>
<rect width="19" height="520" x="262" y="40" style="fill:rgb(230,230,230);stroke:none"/>
<text x="263" y="575" fill="rgb(0,0,0)" font-family="Arial" font-size="12">14</text>
<rect width="19" height="520" x="300" y="40" style="fill:rgb(230,230,230);stroke:none"/>
<text x="301" y="575" fill="rgb(0,0,0)" font-family="Arial" font-size="12">16</text>
<rect width="19" height="520" x="338" y="40" style="fill:rgb(230,230,230);stroke:none"/>
<text x="339" y="575" fill="rgb(0,0,0)" font-family="Arial" font-size="12">18</text>
<rect width="19" height="520" x="376" y="40" style="fill:rgb(230,230,230);stroke:none"/>
<text x="377" y="575" fill="rgb(0,0,0)" font-family="Arial" font-size="12">20</text>
<rect width="19" height="520" x="414" y="40" style="fill:rgb(230,230,230);stroke:none"/>
<text x="415" y="575" fill="rgb(0,0,0)" font-family="Arial" font-size="12">22</text>
<rect width="19" height="520" x="452" y="40" style="fill:rgb(230,230,230);stroke:none"/>
<text x="453" y="575" fill="rgb(0,0,0)" font-family="Arial" font-size="12">24</text>
<rect width="19" height="520" x="490" y="40" style="fill:rgb(230,230,230);stroke:none"/>
<text x="491" y="575" fill="rgb(0,0,0)" font-family="Arial" font-size="12">26</text>
<rect width="19" height="520" x="528" y="40" style="fill:rgb(230,230,230);stroke:none"/>
<text x="529" y="575" fill="rgb(0,0,0)" font-family="Arial" font-size="12">28</text>
<rect width="19" height="520" x="566" y="40" style="fill:rgb(230,230,230);stroke:none"/>
<text x="567" y="575" fill="rgb(0,0,0)" font-family="Arial" font-size="12">30</text>
<rect width="19" height="520" x="604" y="40" style="fill:rgb(230,230,230);stroke:none"/>
<text x="605" y="575" fill="rgb(0,0,0)" font-family="Arial" font-size="12">32</text>
<rect width="19" height="520" x="642" y="40" style="fill:rgb(230,230,230);stroke:none"/>
<text x="643" y="575" fill="rgb(0,0,0)" font-family="Arial" font-size="12">34</text>
<rect width="19" height="520" x="680" y="40" style="fill:rgb(230,230,230);stroke:none"/>
<text x="681" y="575" fill="rgb(0,0,0)" font-family="Arial" font-size="12">36</text>
<rect width="19" height="520" x="718" y="40" style="fill:rgb(230,230,230);stroke:none"/>
<text x="719" y="575" fill="rgb(0,0,0)" font-family="Arial" font-size="12">38</text>
<rect width="19" height="520" x="756" y="40" style="fill:rgb(230,230,230);stroke:none"/>
<text x="757" y="575" fill="rgb(0,0,0)" font-family="Arial" font-size="12">40</text>
<line x1="53" y1="560" x2="790" y2="560" stroke="rgb(180,180,180)" stroke-width="1"/>
<line x1="53" y1="475" x2="790" y2="475" stroke="rgb(180,180,180)" stroke-width="1"/>
<line x1="53" y1="389" x2="790" y2="389" stroke="rgb(180,180,180)" stroke-width="1"/>
<line x1="53" y1="303" x2="790" y2="303" stroke="rgb(180,180,180)" stroke-width="1"/>
<line x1="53" y1="218" x2="790" y2="218" stroke="rgb(180,180,180)" stroke-width="1"/>
<line x1="53" y1="132" x2="790" y2="132" stroke="rgb(180,180,180)" stroke-width="1"/>
<line x1="53" y1="46" x2="790" y2="46" stroke="rgb(180,180,180)" stroke-width="1"/>
<line x1="62" y1="560" x2="81" y2="560" stroke="rgb(136,34,85)" stroke-width="1"/>
<line x1="81" y1="560" x2="100" y2="560" stroke="rgb(136,34,85)" stroke-width="1"/>
<line x1="100" y1="560" x2="119" y2="560" stroke="rgb(136,34,85)" stroke-width="1"/>
<line x1="119" y1="560" x2="138" y2="560" stroke="rgb(136,34,85)" stroke-width="1"/>
<line x1="138" y1="560" x2="157" y2="560" stroke="rgb(136,34,85)" stroke-width="1"/>
<line x1="157" y1="560" x2="176" y2="560" stroke="rgb(136,34,85)" stroke-width="1"/>
<line x1="176" y1="560" x2="195" y2="560" stroke="rgb(136,34,85)" stroke-width="1"/>
<line x1="195" y1="560" x2="214" y2="560" stroke="rgb(136,34,85)" stroke-width="1"/>
<line x1="214" y1="560" x2="233" y2="560" stroke="rgb(136,34,85)" stroke-width="1"/>
<line x1="233" y1="560" x2="252" y2="559" stroke="rgb(136,34,85)" stroke-width="1"/>
<line x1="252" y1="559" x2="271" y2="559" stroke="rgb(136,34,85)" stroke-width="1"/>
<line x1="271" y1="559" x2="290" y2="559" stroke="rgb(136,34,85)" stroke-width="1"/>
<line x1="290" y1="559" x2="309" y2="559" stroke="rgb(136,34,85)" stroke-width="1"/>
<line x1="309" y1="559" x2="328" y2="559" stroke="rgb(136,34,85)" stroke-width="1"/>
<line x1="328" y1="559" x2="347" y2="558" stroke="rgb(136,34,85)" stroke-width="1"/>
<line x1="347" y1="558" x2="366" y2="558" stroke="rgb(136,34,85)" stroke-width="1"/>
<line x1="366" y1="558" x2="385" y2="558" stroke="rgb(136,34,85)" stroke-width="1"/>
<line x1="385" y1="558" x2="404" y2="557" stroke="rgb(136,34,85)" stroke-width="1"/>
<line x1="404" y1="557" x2="423" y2="557" stroke="rgb(136,34,85)" stroke-width="1"/>
<line x1="423" y1="557" x2="442" y2="556" stroke="rgb(136,34,85)" stroke-width="1"/>
<line x1="442" y1="556" x2="461" y2="555" stroke="rgb(136,34,85)" stroke-width="1"/>
<line x1="461" y1="555" x2="480" y2="553" stroke="rgb(136,34,85)" stroke-width="1"/>
<line x1="480" y1="553" x2="499" y2="551" stroke="rgb(136,34,85)" stroke-width="1"/>
<line x1="499" y1="551" x2="518" y2="547" stroke="rgb(136,34,85)" stroke-width="1"/>
<line x1="518" y1="547" x2="537" y2="544" stroke="rgb(136,34,85)" stroke-width="1"/>
<line x1="537" y1="544" x2="556" y2="539" stroke="rgb(136,34,85)" stroke-width="1"/>
<line x1="556" y1="539" x2="575" y2="534" stroke="rgb(136,34,85)" stroke-width="1"/>
<line x1="575" y1="534" x2="594" y2="527" stroke="rgb(136,34,85)" stroke-width="1"/>
<line x1="594" y1="527" x2="613" y2="518" stroke="rgb(136,34,85)" stroke-width="1"/>
<line x1="613" y1="518" x2="632" y2="506" stroke="rgb(136,34,85)" stroke-width="1"/>
<line x1="632" y1="506" x2="651" y2="487" stroke="rgb(136,34,85)" stroke-width="1"/>
<line x1="651" y1="487" x2="670" y2="450" stroke="rgb(136,34,85)" stroke-width="1"/>
<line x1="670" y1="450" x2="689" y2="360" stroke="rgb(136,34,85)" stroke-width="1"/>
<line x1="689" y1="360" x2="708" y2="167" stroke="rgb(136,34,85)" stroke-width="1"/>
<line x1="708" y1="167" x2="727" y2="40" stroke="rgb(136,34,85)" stroke-width="1"/>
<line x1="727" y1="40" x2="746" y2="405" stroke="rgb(136,34,85)" stroke-width="1"/>
<line x1="746" y1="405" x2="765" y2="560" stroke="rgb(136,34,85)" stroke-width="1"/>
<rect width="183" height="23" x="607" y="40" style="fill:rgb(255,255,255);stroke:none"/>
<rect width="183" height="23" x="607" y="40" rx="0" ry="0" style="fill:none;stroke-width:1;stroke:rgb(192,192,192)"/>
<text x="610" y="55" fill="rgb(136,34,85)" font-family="Arial" font-size="12" font-weight="bold">Average Quality per read</text>
</svg>
